<svg xmlns="http://www.w3.org/2000/svg" height="20" viewBox="0 -960 960 960" width="20"><path d="M479.788-213.156q-21.037 0-35.604-14.779-14.567-14.78-14.567-35.817t14.779-35.604q14.779-14.566 35.816-14.566 21.037 0 35.604 14.779t14.567 35.816q0 21.037-14.779 35.604t-35.816 14.567Zm0-216.461q-21.037 0-35.604-14.779t-14.567-35.816q0-21.037 14.779-35.604t35.816-14.567q21.037 0 35.604 14.779t14.567 35.816q0 21.037-14.779 35.604t-35.816 14.567Zm0-216.461q-21.037 0-35.604-14.779t-14.567-35.816q0-21.037 14.779-35.604t35.816-14.567q21.037 0 35.604 14.779 14.567 14.78 14.567 35.817t-14.779 35.604q-14.779 14.566-35.816 14.566Z"/></svg>